<?xml version="1.0" encoding="UTF-8"?>
<svg version="1.1" xmlns="http://www.w3.org/2000/svg" width="2484" height="1200">
<path d="M0 0 C819.72 0 1639.44 0 2484 0 C2484 396 2484 792 2484 1200 C1664.28 1200 844.56 1200 0 1200 C0 804 0 408 0 0 Z " fill="#000000" transform="translate(0,0)"/>
<path d="M0 0 C1.53333984 0.00676758 1.53333984 0.00676758 3.09765625 0.01367188 C5.60683194 0.025397 8.1158849 0.04180824 10.625 0.0625 C10.68952264 3.89237949 10.74032298 7.41509775 9.75 11.125 C8.82917464 14.88941475 8.21057483 18.63882823 7.67578125 22.4765625 C7.50272461 23.71510986 7.32966797 24.95365723 7.15136719 26.22973633 C6.97766602 27.49454834 6.80396484 28.75936035 6.625 30.0625 C6.46418945 31.23256592 6.30337891 32.40263184 6.13769531 33.6081543 C5.10798841 41.1661819 4.10826058 48.72813616 3.11865234 56.29150391 C2.80877247 58.6586674 2.49690112 61.02557194 2.18212891 63.39208984 C-0.09146695 80.58262705 -1.37675836 97.75904744 -2.375 115.0625 C-1.2303125 114.5675 -1.2303125 114.5675 -0.0625 114.0625 C2.625 113.0625 2.625 113.0625 5.625 113.0625 C5.625 117.3525 5.625 121.6425 5.625 126.0625 C2.91620665 127.41689668 0.61566732 127.12751451 -2.375 127.0625 C-2.05482427 153.19839155 -1.27879292 179.07518473 1.625 205.0625 C1.72941406 206.01189453 1.83382812 206.96128906 1.94140625 207.93945312 C2.16663221 209.98076161 2.39529847 212.02169029 2.625 214.0625 C10.77407298 213.18187437 17.71301595 211.54178483 25.1640625 208.0859375 C27.625 207.0625 27.625 207.0625 30.625 207.0625 C30.955 209.7025 31.285 212.3425 31.625 215.0625 C30.39717138 215.69012455 29.16766164 216.31446065 27.9375 216.9375 C27.25300781 217.28554688 26.56851563 217.63359375 25.86328125 217.9921875 C21.05973107 220.2891731 16.4823011 221.6367945 11.25 222.6875 C9.98414063 222.94789063 8.71828125 223.20828125 7.4140625 223.4765625 C3.74202821 224.04440285 0.33207556 224.10410267 -3.375 224.0625 C-7.40626977 201.46456142 -11.39476816 178.95127788 -13.375 156.0625 C-13.47868896 154.8856665 -13.47868896 154.8856665 -13.58447266 153.68505859 C-14.28470709 145.46146106 -14.41284792 137.3108226 -14.375 129.0625 C-16.21892334 129.07821045 -16.21892334 129.07821045 -18.10009766 129.09423828 C-22.72588102 129.13084614 -27.35165199 129.15354662 -31.97753906 129.17236328 C-33.96746993 129.18232901 -35.95738651 129.19590648 -37.94726562 129.21337891 C-49.28656116 129.31034471 -60.19508338 129.1900662 -71.375 127.0625 C-71.47683594 127.94139893 -71.57867188 128.82029785 -71.68359375 129.72583008 C-74.97699376 157.09797362 -84.56900736 193.01163766 -106.3125 211.5625 C-113.76159065 217.11235685 -121.11209538 219.14137408 -130.375 218.0625 C-138.68611644 215.80863792 -143.12620005 209.49359991 -147.25 202.3125 C-151.49809118 194.49151094 -151.72171866 184.75719604 -149.69140625 176.171875 C-146.62770545 168.08675588 -141.84239694 159.69228611 -134.375 155.0625 C-131.53148676 154.37160622 -129.2158213 154.35371225 -126.375 155.0625 C-122.30353971 157.75120019 -119.27134216 160.53234928 -117.375 165.0625 C-116.66200111 172.19248892 -117.96736626 178.77206722 -122.25 184.625 C-124.82294577 186.36552214 -126.32888864 186.40095682 -129.375 186.0625 C-128.88 185.216875 -128.385 184.37125 -127.875 183.5 C-126.17352132 179.60077802 -125.83924853 177.27197587 -126.375 173.0625 C-127.764089 170.01336064 -127.764089 170.01336064 -130.375 168.0625 C-134.79767433 167.49961418 -138.51296468 167.74527881 -142.375 170.0625 C-145.4942613 176.3010226 -145.22039794 183.1886512 -143.7578125 189.890625 C-141.84983148 195.53014412 -139.51761499 198.39632954 -134.27734375 201.22265625 C-127.4205613 204.24977787 -118.0963835 204.13258386 -110.82421875 202.484375 C-103.2067707 199.12598107 -98.03854648 192.22964581 -94.88647461 184.73510742 C-87.33679815 165.05366488 -86.11872656 143.86668466 -84.375 123.0625 C-85.1477124 122.88291748 -85.9204248 122.70333496 -86.71655273 122.51831055 C-92.84421801 121.04863833 -98.68544627 119.45732567 -104.4375 116.875 C-105.11159912 116.57311768 -105.78569824 116.27123535 -106.48022461 115.96020508 C-116.74398649 111.19423256 -124.9013421 105.1836033 -130.375 95.0625 C-132.4298693 88.67772753 -132.05099927 82.82780932 -129.25 76.75 C-126.95336343 72.57842567 -124.80305141 70.09202356 -120.375 68.0625 C-117.5 67.8125 -117.5 67.8125 -115.375 68.0625 C-115.87 69.238125 -116.365 70.41375 -116.875 71.625 C-119.31264147 79.09101301 -119.96831927 87.51791891 -117.34375 95.00390625 C-111.46928055 105.69217705 -100.2718326 111.93213297 -89.0546875 115.87890625 C-87.509125 116.32630592 -85.94400359 116.70590828 -84.375 117.0625 C-84.53653564 116.05582275 -84.69807129 115.04914551 -84.86450195 114.01196289 C-85.6127385 108.22323856 -85.5609723 102.45746089 -85.56030273 96.6315918 C-85.56246952 94.52957284 -85.58061087 92.42809697 -85.59960938 90.32617188 C-85.70835366 64.55889261 -79.69794791 43.06029983 -61.8125 24.0625 C-45.27905705 7.90595924 -22.87420396 -0.19184816 0 0 Z " fill="#F8F8F8" transform="translate(827.375,446.9375)"/>
<path d="M0 0 C11.42499308 6.57861612 18.24438739 17.40402281 21.82250977 29.86425781 C24.33340505 40.08681573 24.51492175 50.02511997 24.4375 60.5 C24.43412628 61.38328979 24.43075256 62.26657959 24.42727661 63.17663574 C24.27410539 90.86272607 19.61342884 121.81239141 0 143 C-5.57395226 147.80394236 -10.24420715 149.37889961 -17.5 149.2734375 C-21.98398803 148.78300131 -24.57122665 146.67337313 -27.4375 143.31640625 C-32.19937536 137.02586067 -32.96281112 130.82148808 -32 123 C-30.00790112 118.01561981 -26.71416853 113.63116383 -22 111 C-17.61405958 110.14246379 -14.85418798 110.45477363 -11.0625 112.875 C-7.66907392 116.37125717 -7.66916825 118.97319649 -7.70703125 123.67578125 C-8.26598056 128.11011243 -10.94621422 130.94621422 -14 134 C-16.125 133.625 -16.125 133.625 -18 133 C-17.505 132.278125 -17.01 131.55625 -16.5 130.8125 C-14.91577251 127.84207346 -14.6331962 126.3012342 -15 123 C-16.10649557 121.68465212 -16.10649557 121.68465212 -18.875 121.6875 C-22.02285427 121.66822563 -22.02285427 121.66822563 -23.66796875 123.67578125 C-26.05583328 127.84228973 -25.65775143 132.34623184 -25 137 C-23.1031157 139.65563802 -21.85514945 140.57242527 -19 142 C-14.05572909 142.61256454 -10.26033339 142.90415222 -6.125 139.9375 C0.15003532 131.26318647 3.06830664 122.4663878 4.625 111.9375 C4.74979736 111.10371826 4.87459473 110.26993652 5.00317383 109.41088867 C6.12391272 101.61479992 6.80349863 93.87571782 7 86 C7.03254883 84.83678223 7.06509766 83.67356445 7.09863281 82.47509766 C8.06457781 46.95200123 8.06457781 46.95200123 -8.390625 16.328125 C-13.89895977 11.78241184 -20.50895567 9.52642451 -27.59765625 9.67578125 C-33.05925499 10.41287506 -36.55690414 13.13387604 -39.87890625 17.4296875 C-41.72107419 20.2386952 -43.39878279 23.0458442 -45 26 C-45.43521973 26.60529541 -45.87043945 27.21059082 -46.31884766 27.83422852 C-51.56754044 36.08204245 -50.38964503 45.17914601 -50.08990479 54.56103516 C-49.42720967 76.6850643 -49.36285622 99.33826089 -61 119 C-61.74443359 120.28390625 -61.74443359 120.28390625 -62.50390625 121.59375 C-65.77400614 126.85323181 -69.3578513 131.17892565 -75 134 C-79.70697417 134.57425085 -83.12144792 134.45554552 -87.375 132.25 C-91.40236853 128.79796983 -93.66323051 125.97800445 -94.2734375 120.58203125 C-94.52328907 113.7687711 -93.60717941 109.17821009 -89 104 C-84.98141405 101.3209427 -81.72358279 101.30389306 -77 102 C-74.12970131 103.79393668 -72.50868362 104.98263276 -71 108 C-70.45096966 113.70991556 -71.48630449 116.49807763 -75 121 C-76.65 120.67 -78.3 120.34 -80 120 C-79.01 118.515 -79.01 118.515 -78 117 C-78 116.01 -78 115.02 -78 114 C-82.0335224 112.88516471 -82.0335224 112.88516471 -85.875 114 C-87.64285561 117.14285441 -87.42694199 119.46248066 -87 123 C-85.67838573 126.06873898 -85.67838573 126.06873898 -83 128 C-80.18345813 128.70990707 -77.76928484 128.91948911 -75 128 C-62.83167389 115.4949121 -64.62663842 90.94196731 -64.62939453 74.65332031 C-64.62498434 71.7396551 -64.58840822 68.82746542 -64.55078125 65.9140625 C-64.49049761 55.95167349 -64.73539636 47.21621631 -69 38 C-69.48082031 36.90042969 -69.96164062 35.80085937 -70.45703125 34.66796875 C-74.58715988 27.10995238 -79.4555617 19.79337406 -88 17 C-95.29858478 15.86825742 -100.59124837 16.96348699 -106.7109375 21.1015625 C-114.0969193 27.22713785 -118.95473022 35.64699848 -121 45 C-121.10663032 46.3979575 -121.16922535 47.79971797 -121.19618225 49.20147705 C-121.21438522 50.03156281 -121.2325882 50.86164856 -121.25134277 51.71688843 C-121.26644897 52.6188797 -121.28155518 53.52087097 -121.29711914 54.45019531 C-121.31677231 55.40662933 -121.33642548 56.36306335 -121.35667419 57.34848022 C-121.42052062 60.50829247 -121.47786369 63.66818768 -121.53515625 66.828125 C-121.57816734 69.01960018 -121.62158392 71.21106743 -121.66539001 73.40252686 C-121.77957792 79.16952348 -121.88825173 84.93661139 -121.99578857 90.70373535 C-122.10650092 96.58901343 -122.22241268 102.47418884 -122.33789062 108.359375 C-122.56369076 119.90615531 -122.7836674 131.4530387 -123 143 C-122.41573242 142.83701416 -121.83146484 142.67402832 -121.22949219 142.50610352 C-117.92116288 141.75509972 -114.62262841 141.89605939 -111.25 141.9375 C-110.20392578 141.94426758 -110.20392578 141.94426758 -109.13671875 141.95117188 C-107.42444197 141.9628998 -105.71220967 141.98083347 -104 142 C-104 144.64 -104 147.28 -104 150 C-105.65708984 150.03867187 -105.65708984 150.03867187 -107.34765625 150.078125 C-120.48035074 150.51411845 -133.11342225 152.49847762 -146 155 C-146.33 152.69 -146.66 150.38 -147 148 C-139.08 146.02 -139.08 146.02 -131 144 C-130.32039235 104.90997466 -132.84432074 66.20466287 -141.33740234 27.94750977 C-141.53930176 27.03412842 -141.74120117 26.12074707 -141.94921875 25.1796875 C-142.12799561 24.39319824 -142.30677246 23.60670898 -142.4909668 22.79638672 C-143.20090841 18.89630457 -143.56223046 14.93992585 -144 11 C-153.405 11.99 -153.405 11.99 -163 13 C-163 10.69 -163 8.38 -163 6 C-162.21987549 5.89977539 -161.43975098 5.79955078 -160.63598633 5.69628906 C-157.02653723 5.22580445 -153.41962243 4.73799031 -149.8125 4.25 C-148.58595703 4.09273437 -147.35941406 3.93546875 -146.09570312 3.7734375 C-138.65248687 2.75220466 -131.73707211 1.20331285 -124.6159668 -1.20410156 C-122 -2 -122 -2 -119 -2 C-119.0721875 -1.1028125 -119.144375 -0.205625 -119.21875 0.71875 C-119.92144986 10.16615923 -120.11201153 19.52880309 -120 29 C-119.27296875 27.93072266 -119.27296875 27.93072266 -118.53125 26.83984375 C-111.7655961 17.1727652 -103.22319539 7.34877088 -91 5 C-80.85022262 3.97317427 -72.43805067 6.94121782 -64.328125 12.97265625 C-58.77637511 17.80714986 -55.16746059 23.40979095 -52 30 C-51.57589844 29.09378906 -51.15179687 28.18757812 -50.71484375 27.25390625 C-44.80959317 14.88181065 -37.72207492 4.07466177 -25.5625 -3 C-16.48528347 -5.54799061 -8.51268816 -3.79126637 0 0 Z " fill="#F8F8F8" transform="translate(1430,518)"/>
<path d="M0 0 C1.06335571 0.01244751 1.06335571 0.01244751 2.14819336 0.02514648 C9.95280727 0.27754567 14.22157329 2.48912772 19.8125 7.6875 C30.7063421 19.39838025 33.66050082 34.03363536 33.3984375 49.60546875 C32.78110885 64.9928437 25.92541044 78.5533642 19.3671875 92.171875 C18.88386963 93.17661865 18.40055176 94.1813623 17.90258789 95.21655273 C16.952876 97.18292004 15.99672032 99.14619327 15.03295898 101.10571289 C5.79748222 120.08337993 2.47542499 138.55531844 1.125 159.4375 C-0.525 159.4375 -2.175 159.4375 -3.875 159.4375 C-4.205 153.1675 -4.535 146.8975 -4.875 140.4375 C-8.84151641 142.92963506 -8.84151641 142.92963506 -12.80102539 145.43286133 C-20.31043582 150.10209064 -26.9467608 152.78637067 -35.875 151.4375 C-43.02306724 148.7161546 -47.04469167 143.35958929 -50.1875 136.625 C-51.64726443 129.85700128 -51.84969511 123.52318687 -48.33203125 117.3828125 C-42.81538606 110.01742562 -34.95525073 104.30227111 -25.875 102.4375 C-23.55963068 102.28930932 -21.24096189 102.18988023 -18.921875 102.12109375 C-18.26165344 102.10031265 -17.60143188 102.07953156 -16.92120361 102.05812073 C-14.82256985 101.99299853 -12.72381628 101.93391498 -10.625 101.875 C-9.19790453 101.83177921 -7.77082095 101.7881638 -6.34375 101.74414062 C-2.85429278 101.63735589 0.63529753 101.53598434 4.125 101.4375 C4.31763428 100.71232178 4.51026855 99.98714355 4.70874023 99.23999023 C6.29429656 93.33680426 8.05532493 87.58733684 10.16015625 81.84765625 C12.91628372 72.10636362 13.44101494 62.51578013 13.375 52.4375 C13.38273437 51.25671875 13.39046875 50.0759375 13.3984375 48.859375 C13.36983407 35.87341869 12.43336464 22.36642228 3.125 12.4375 C-2.02247126 9.86376437 -10.92495011 10.68985377 -16.43359375 12.0859375 C-24.07521155 15.57158773 -28.97934407 22.76722917 -31.875 30.4375 C-34.30534101 37.82239885 -35.18256272 45.08123175 -35.3125 52.8125 C-35.34585449 53.93567627 -35.34585449 53.93567627 -35.37988281 55.08154297 C-35.35769466 60.6150214 -34.0340765 63.8841942 -30.875 68.4375 C-27.64956718 70.05021641 -24.37205818 69.8819859 -20.875 69.4375 C-14.99847845 66.78730401 -12.13642329 62.2979544 -9.875 56.4375 C-9.07366104 52.47261419 -9.193444 49.50072735 -11.4375 46 C-14.61417374 43.96367068 -17.1273018 43.57630364 -20.875 43.4375 C-23.16228734 45.27633881 -23.16228734 45.27633881 -23 48.0625 C-22.95875 48.84625 -22.9175 49.63 -22.875 50.4375 C-20.895 50.7675 -18.915 51.0975 -16.875 51.4375 C-17.5 53.875 -17.5 53.875 -18.875 56.4375 C-21.75 57.4375 -21.75 57.4375 -24.875 57.4375 C-28.04248634 55.72534522 -28.72078536 54.90014391 -29.875 51.4375 C-30.41423825 45.72157456 -29.50934458 42.87947671 -25.875 38.4375 C-22.08523998 35.04919761 -19.40362481 34.98520152 -14.4765625 35.15234375 C-9.27094252 35.72292972 -5.41726149 37.16513427 -1.375 40.5 C0.86277551 44.88231038 0.94374398 48.61840167 0.125 53.4375 C-3.32190167 62.81734305 -10.72359364 69.50842463 -19.26171875 74.328125 C-23.57872745 76.1607565 -27.30242851 76.43868395 -31.875 75.4375 C-37.93279937 72.86815751 -41.87373543 68.93971301 -45.125 63.25 C-48.47830236 50.67511614 -43.47125118 38.00687148 -37.2421875 27.19140625 C-31.30983131 17.46907315 -23.8330513 9.1417847 -13.875 3.4375 C-12.95074219 2.89222656 -12.02648437 2.34695313 -11.07421875 1.78515625 C-7.31377979 0.20108855 -4.01537456 -0.06031373 0 0 Z " fill="#F7F7F7" transform="translate(1023.875,511.5625)"/>
<path d="M0 0 C0.18223735 5.35542651 -0.11863379 10.41059711 -0.83984375 15.72265625 C-3.73512932 37.243195 -4.49882089 58.62719562 -4.75 80.3125 C-4.76280062 81.41384214 -4.76280062 81.41384214 -4.77585983 82.53743362 C-4.87962022 91.69144967 -4.95362378 100.8455008 -5 110 C-15.76072299 112.4393057 -25.96805204 113.43143173 -36.99584961 113.28125 C-39.3561142 113.24941167 -41.71571136 113.24019312 -44.07617188 113.234375 C-45.58854988 113.22522741 -47.1009211 113.21485893 -48.61328125 113.203125 C-49.3131868 113.19887512 -50.01309235 113.19462524 -50.73420715 113.19024658 C-53.75779507 113.14547667 -56.1080297 112.9639901 -59 112 C-59.17680816 102.26900259 -58.70663179 92.80675201 -57.6875 83.125 C-57.61964294 82.46980377 -57.55178589 81.81460754 -57.48187256 81.13955688 C-56.4580777 71.3118142 -55.32294479 61.61762208 -53 52 C-52.83806152 51.32791504 -52.67612305 50.65583008 -52.50927734 49.96337891 C-47.80432265 31.00019586 -40.60416071 15.64032678 -23.96484375 4.6640625 C-16.35427478 0.39251786 -8.5440105 -0.14989492 0 0 Z " fill="#010101" transform="translate(817,455)"/>
<path d="M0 0 C9.59616188 6.49437218 18.21167462 14.40384678 21 26 C22.35090255 36.13176915 20.1744272 44.53325728 14.6484375 53.09375 C7.85514531 61.74665848 -2.27047376 66.55144986 -13 68 C-25.76045545 68.66754898 -38.41620473 68.6218232 -49.15234375 60.73046875 C-53.21560308 56.92492143 -55.1418091 52.5356775 -55.5 47 C-55.16939572 41.56102634 -53.03461379 37.088991 -49.24609375 33.19921875 C-44.04367667 28.64846143 -40.79672022 27.60405798 -33.83984375 27.640625 C-29.37645499 28.20545549 -27.29002058 29.99606817 -24 33 C-22.26651981 36.46696038 -22.52300621 40.20948937 -23 44 C-25.92682927 49.46341463 -25.92682927 49.46341463 -29 51 C-31.3329866 51.04022391 -33.66706666 51.04320247 -36 51 C-36.495 49.02 -36.495 49.02 -37 47 C-36.175 46.484375 -35.35 45.96875 -34.5 45.4375 C-31.65159077 43.15772878 -31.65159077 43.15772878 -31.5 39.4375 C-31.77463495 36.14317702 -31.77463495 36.14317702 -33.0625 34.0625 C-36.01168691 32.44520395 -38.70867559 32.81369862 -42 33 C-44.50423238 38.73886586 -46.02637946 43.70889768 -45 50 C-42.21960109 55.56079782 -36.46885753 57.62620541 -31 60 C-27.10429113 61.29856962 -23.37469608 61.26324136 -19.3125 61.3125 C-18.14557617 61.35600586 -18.14557617 61.35600586 -16.95507812 61.40039062 C-11.14085889 61.46343053 -6.83666532 60.28673885 -2 57 C3.38980312 51.44686951 4.99989015 43.80259676 5.375 36.3125 C5.09686621 25.66161201 1.06792145 15.91036057 -6 8 C-12.54342842 2.00695341 -17.46993837 0.66476369 -26.2578125 0.79296875 C-33.70191697 1.35498803 -39.15010705 5.64202302 -44 11 C-53.50247341 23.8084341 -56.40321487 37.63430965 -59 53 C-59.18820312 53.94101562 -59.37640625 54.88203125 -59.5703125 55.8515625 C-62.6427354 78.364043 -59.09885619 102.1477788 -46 121 C-44.9171875 122.5778125 -44.9171875 122.5778125 -43.8125 124.1875 C-36.85842717 131.14157283 -28.5843066 135.80502685 -18.6875 136.375 C-10.93294368 136.1636322 -3.97769205 132.86474713 1.59375 127.54296875 C6.39461403 122.27535404 6.59821529 116.95324959 6.40234375 110.06640625 C5.77948176 105.3193513 4.76264051 103.99475469 1 101 C-3.7274644 98.24520916 -8.44487707 95.98997765 -14 97 C-16.69990662 98.79993774 -18.5418865 100.083773 -20 103 C-20.25 106 -20.25 106 -20 109 C-17.23776722 111.76223278 -14.79293383 111.57856291 -11 112 C-10.34 109.36 -9.68 106.72 -9 104 C-4.125 104.875 -4.125 104.875 -3 106 C-2.42997122 110.52285132 -2.38842933 113.97343495 -4.75 117.9375 C-7.59865591 120.54876792 -9.55787202 121.68818855 -13.3125 122.5 C-17.48220374 121.72424117 -20.18715656 119.08916811 -23 116 C-26.29801404 110.97134493 -25.5742781 104.75713794 -25 99 C-22.7144807 94.07734305 -19.28305294 91.18950751 -15 88 C-8.56168949 85.8538965 -3.09786509 86.68349859 2.890625 89.60546875 C8.48382854 93.30319776 12.11075354 99.70251181 14 106 C14.94126107 115.33417229 13.94357356 123.53744849 8.1875 131.125 C1.01161507 138.53908858 -7.33740181 142.25456044 -17.515625 142.72998047 C-26.55378163 142.79932261 -34.07393411 141.63068456 -42 137 C-42.78246094 136.55398438 -43.56492187 136.10796875 -44.37109375 135.6484375 C-61.9567103 124.73743105 -74.38317386 107.43874198 -79.30859375 87.38671875 C-83.53350208 64.35206528 -78.40656494 41.54906312 -65.39453125 22.33203125 C-62.00121229 17.50355502 -58.16642533 13.17391891 -54 9 C-53.36578125 8.35417969 -52.7315625 7.70835937 -52.078125 7.04296875 C-38.23937962 -6.0809654 -16.67825222 -10.05564696 0 0 Z " fill="#F7F7F7" transform="translate(1240,528)"/>
<path d="M0 0 C0.495 1.98 0.495 1.98 1 4 C0.23816406 4.27972656 -0.52367187 4.55945313 -1.30859375 4.84765625 C-17.89269741 11.28667777 -26.1204452 22.01521051 -33.24072266 38.10302734 C-42.64722219 61.6041532 -40.84893647 89.73058869 -31.75 113 C-27.06339464 123.7540855 -21.58382731 132.72341461 -10.8125 138.08984375 C-3.8036064 140.80579002 3.49282889 141.01054083 10.6875 138.9375 C25.62465983 130.20067067 33.54048482 114.20225603 38 98 C39.92219945 90.41345598 40.35206661 83.12145745 40.3125 75.3125 C40.30758545 74.1663623 40.3026709 73.02022461 40.29760742 71.83935547 C40.0526003 54.07068515 35.95230738 34.79695551 22.796875 21.828125 C16.46406333 16.61540247 10.3504749 14.4741588 2.140625 14.68359375 C-2.3913825 15.35347077 -5.10783689 18.08234652 -8.1875 21.25 C-12.26510092 27.43670484 -14.01637338 33.58322131 -13 41 C-11.8009473 44.23744229 -10.56401106 46.35243175 -8.3125 48.9375 C-4.76628928 50.56684006 -1.61144193 50.15760231 2 49 C4.95751127 47.17461132 7.41926903 45.16146193 9 42 C9.37615126 37.86935374 9.37615126 37.86935374 7.875 34.125 C5.21965017 32.5317901 3.03210482 32.79785968 0 33 C0.2475 34.11375 0.2475 34.11375 0.5 35.25 C1 38 1 38 1 42 C-1.475 42.495 -1.475 42.495 -4 43 C-6.14978703 40.67106405 -6.96248682 39.22038995 -7.5 36.0625 C-6.81376241 31.85929476 -5.38756723 30.52265645 -2 28 C2.33747797 26.65932499 4.16647335 26.58323667 8.25 28.625 C11.58878084 31.50849254 13.66217211 33.55074779 14.28125 38.0390625 C14.56118085 44.82738571 12.80879608 50.09300629 9.25 55.8125 C5.47806952 59.47965463 1.18036017 61.10521145 -4 61.6875 C-6.79533529 61.59504728 -7.8122508 61.15572139 -9.9921875 59.34765625 C-16.78913853 51.77511952 -18.41008123 44.88899469 -18.2734375 34.8046875 C-17.33844466 25.21433237 -10.82427442 18.19595406 -3.8125 12.125 C2.83418891 7.10305727 8.80411216 7.19328434 17 8 C31.22329468 11.577532 41.31283743 21.9906215 49 34 C59.39075862 51.70876372 61.6663372 70.2880423 57.1015625 90.2109375 C51.01040085 111.1628056 38.78698486 131.40378152 19.4375 142.46484375 C9.39895687 147.38864004 -2.32175036 147.938644 -12.9375 144.375 C-14.64713897 143.6323514 -16.33650795 142.84094385 -18 142 C-18.82628906 141.5875 -19.65257812 141.175 -20.50390625 140.75 C-37.86415337 131.18692177 -49.76026063 114.48155436 -55.25 95.6875 C-60.63735171 75.97067591 -58.57676917 57.36215464 -48.9921875 39.32421875 C-45.73148747 33.88332517 -41.98222444 28.9279104 -38 24 C-37.52175781 23.35675781 -37.04351563 22.71351563 -36.55078125 22.05078125 C-28.83021952 12.10447199 -13.0514517 0 0 0 Z " fill="#F8F8F8" transform="translate(1539,520)"/>
<path d="M0 0 C0.43952964 15.27534566 -0.6410519 29.90524169 -3 45 C-1.98164062 44.62488281 -0.96328125 44.24976563 0.0859375 43.86328125 C7.94362815 41.00781409 15.81878956 38.36759467 23.875 36.125 C24.64118652 35.91012939 25.40737305 35.69525879 26.19677734 35.47387695 C29.21524017 34.65186362 31.85698463 34 35 34 C35.495 38.95 35.495 38.95 36 44 C35.13834229 44.16604736 34.27668457 44.33209473 33.38891602 44.50317383 C30.15064172 45.13021022 26.91352151 45.76267448 23.67700195 46.39868164 C22.28386362 46.67132562 20.89031554 46.94188538 19.49633789 47.21020508 C11.81558804 48.69013428 4.35482999 50.28775373 -3 53 C-4.46206726 59.994188 -5.6642696 67.00118818 -6.75 74.0625 C-9.3757743 90.82074086 -12.50554169 107.48678788 -15.58447266 124.16625977 C-21.46081611 155.51698648 -21.46081611 155.51698648 -12 185 C-8.24517652 189.05190842 -4.95653818 191.73975638 0.70703125 192.23828125 C5.42544964 192.35104848 9.09534852 192.37155329 13.5 190.5625 C20.5877309 183.29757583 22.00632547 172.644875 22.375 162.875 C22.25671794 156.31034582 20.5520425 151.71669041 16.0625 146.9375 C13.98856495 145.8140122 13.98856495 145.8140122 11.4375 146.0625 C8.48866475 147.1966674 7.58609221 148.30364324 6 151 C4.8422494 154.47325181 4.93133348 157.36067448 5 161 C6.65 161.33 8.3 161.66 10 162 C10.45375 161.175 10.9075 160.35 11.375 159.5 C11.91125 158.675 12.4475 157.85 13 157 C13.66 157 14.32 157 15 157 C14.75464515 161.17103241 14.31454995 163.55592948 11.875 167 C9 169 9 169 5.5625 169.125 C1.21253873 167.75132802 -0.75493985 166.16779681 -4 163 C-5.85602244 159.28795513 -5.44875601 155.0512695 -5 151 C-2.50665497 146.01330993 0.99350949 142.50324526 6 140 C13.32872832 139.24738649 18.83043679 139.92921514 25 144 C25.9075 144.598125 26.815 145.19625 27.75 145.8125 C31.9196865 149.86636187 34.21185622 153.64213748 34.5625 159.4375 C34.03817834 171.26185736 29.31676615 183.67122479 20.9453125 192.05859375 C14.61539089 197.82044547 10.10516304 198.36116423 1.578125 198.2734375 C-6.94267461 197.62228469 -13.33002569 193.22022498 -19 187 C-26.19471726 177.7543 -28.22470396 167.48558472 -28.15625 155.953125 C-28.15218643 154.79251556 -28.15218643 154.79251556 -28.14804077 153.60845947 C-28.05271166 143.63364608 -27.32366493 133.69697501 -26.625 123.75 C-26.48726294 121.720419 -26.35014394 119.69079598 -26.21362305 117.66113281 C-25.81614269 111.77359273 -25.40919544 105.88673586 -25 100 C-24.68942482 95.52128191 -24.37933282 91.04253699 -24.07373047 86.56347656 C-23.90580331 84.11205386 -23.73453236 81.66085669 -23.55908203 79.20996094 C-23.11601426 72.79357736 -22.89437135 66.43161093 -23 60 C-23.97610229 60.31807617 -23.97610229 60.31807617 -24.97192383 60.64257812 C-27.91733376 61.59958001 -30.8648693 62.54986142 -33.8125 63.5 C-35.34874023 64.00080078 -35.34874023 64.00080078 -36.91601562 64.51171875 C-37.89892578 64.82753906 -38.88183594 65.14335938 -39.89453125 65.46875 C-40.80050049 65.76201172 -41.70646973 66.05527344 -42.63989258 66.35742188 C-45 67 -45 67 -48 67 C-48 64.36 -48 61.72 -48 59 C-42.1251201 56.86368004 -36.23530188 55.29248536 -30.15234375 53.890625 C-29.36661987 53.70773926 -28.580896 53.52485352 -27.7713623 53.33642578 C-25.84801949 52.88903475 -23.92407026 52.4442521 -22 52 C-22.11964452 47.09265115 -22.24395801 42.18544903 -22.37231445 37.27832031 C-22.41521676 35.61428921 -22.45691582 33.95022658 -22.49731445 32.28613281 C-22.72784639 22.8257851 -23.04635153 13.42181286 -24 4 C-20.75128084 3.32698711 -17.50083621 2.6627049 -14.25 2 C-13.32960938 1.80921875 -12.40921875 1.6184375 -11.4609375 1.421875 C-10.57148437 1.24140625 -9.68203125 1.0609375 -8.765625 0.875 C-7.54020996 0.62363281 -7.54020996 0.62363281 -6.29003906 0.3671875 C-4 0 -4 0 0 0 Z " fill="#F8F8F8" transform="translate(1115,470)"/>
<path d="M0 0 C0.33 0 0.66 0 1 0 C1.495 20.295 1.495 20.295 2 41 C3.65 36.38 5.3 31.76 7 27 C11.51719614 18.14275267 16.48225367 11.51046659 24 5 C24.56203125 4.50242187 25.1240625 4.00484375 25.703125 3.4921875 C31.19617206 -0.47501316 38.61859336 0.17278062 45 1 C51.75242515 3.25080838 56.43094661 9.04555397 60 15 C62.89501871 20.89904789 63.51593979 26.29577187 63.4375 32.8125 C63.42992676 33.69325195 63.42235352 34.57400391 63.41455078 35.48144531 C63.14822022 46.02191481 60.1379952 54.15564069 53 62 C47.3735763 67.33788915 42.11662656 69.18690947 34.5 69.5625 C29.25938553 69.41208053 26.02630879 68.81772963 22.3671875 64.9765625 C19.15020643 60.32572701 17.47675647 55.38378236 16.375 49.875 C17.84853619 43.09673352 23.38914378 37.93477743 28.921875 34.0703125 C32.60603426 32.17283198 34.89400813 32.33774325 39 33 C42.75212276 35.01502889 44.63644095 36.45466142 47 40 C47.42504468 43.89624286 47.66311843 46.09128215 45.3125 49.3125 C43 51 43 51 38 53 C38 48.71 38 44.42 38 40 C36.35 40 34.7 40 33 40 C29.43460024 45.34809964 28.18152587 48.55451624 29 55 C30.74635797 58.14344435 32.46862726 60.46862726 35 63 C40.85192247 63.7022307 45.33435733 62.50903377 50 59 C56.10277573 51.75680658 57.59983238 43.69799608 57.43359375 34.41796875 C56.64541931 28.20488198 53.75287809 25.17135927 48.984375 21.41015625 C43.22177757 17.66861367 37.74051097 16.84802002 31 18 C21.68667792 20.87941467 15.79016404 27.10320609 11.0546875 35.4140625 C9.23514276 38.88497058 7.60957509 42.4274246 6 46 C5.63648438 46.72058594 5.27296875 47.44117188 4.8984375 48.18359375 C0.31313576 58.14698304 3.12484952 71.79796339 3.875 82.40234375 C3.96523273 83.73641808 4.05490068 85.07053071 4.14404297 86.40467834 C4.47131323 91.28532042 4.80829754 96.16528018 5.14575195 101.04522705 C5.43219858 105.19208359 5.71441163 109.33918829 5.99127197 113.48669624 C6.12018816 115.39366544 6.25504747 117.30023001 6.39013672 119.20677185 C6.96769579 127.82487272 7.09586395 136.36696596 7 145 C17.7156178 140.89341593 27.44618122 136.39690475 37 130 C39 132 39 132 39.125 135.125 C39.08375 136.07375 39.0425 137.0225 39 138 C19.59275567 148.71468109 -0.46536383 158.04514254 -23 159 C-23 156.36 -23 153.72 -23 151 C-21.84242187 150.86722656 -20.68484375 150.73445312 -19.4921875 150.59765625 C-17.95311592 150.41934918 -16.41405393 150.24095938 -14.875 150.0625 C-14.11445312 149.97548828 -13.35390625 149.88847656 -12.5703125 149.79882812 C-11.82265625 149.71181641 -11.075 149.62480469 -10.3046875 149.53515625 C-9.62390137 149.456604 -8.94311523 149.37805176 -8.24169922 149.29711914 C-5.48238709 148.93139459 -2.74349566 148.46869482 0 148 C-1.66620221 125.78950379 -4.21916327 103.9509668 -8 82 C-8.16612793 81.01209473 -8.33225586 80.02418945 -8.50341797 79.00634766 C-10.81378342 65.30306896 -13.69706159 51.72259541 -16.62646484 38.14086914 C-16.77548752 37.44856705 -16.92451019 36.75626495 -17.07804871 36.04298401 C-17.48638122 34.14878723 -17.89680796 32.25504225 -18.30737305 30.36132812 C-18.94862646 27.24931652 -19.50128887 24.13766186 -20 21 C-21.18078125 21.5053125 -22.3615625 22.010625 -23.578125 22.53125 C-25.13525945 23.18787296 -26.69255986 23.84410244 -28.25 24.5 C-29.02730469 24.83386719 -29.80460937 25.16773438 -30.60546875 25.51171875 C-31.35957031 25.82753906 -32.11367187 26.14335938 -32.890625 26.46875 C-33.92751465 26.90864258 -33.92751465 26.90864258 -34.98535156 27.35742188 C-37 28 -37 28 -41 28 C-41 26.35 -41 24.7 -41 23 C-39.25976562 22.36384766 -39.25976562 22.36384766 -37.484375 21.71484375 C-23.68887264 16.57705526 -10.58944468 10.58944468 0 0 Z " fill="#F7F7F7" transform="translate(1643,514)"/>
<path d="M0 0 C0 14.52 0 29.04 0 44 C1.32 39.71 2.64 35.42 4 31 C9.20614078 18.80167015 17.54359863 7.1371756 30 1.6875 C37.31611591 0.0108901 42.65785624 1.22170159 49 5 C56.06826152 10.20224048 60.39636152 18.41486472 62 27 C62.9227581 38.60254852 61.6421796 50.73675199 54 60 C48.8728813 65.6668154 43.89164938 69.58441419 36.1953125 70.23828125 C31.43483181 70.35335648 27.8950719 70.39958567 23.5 68.4375 C18.82262184 63.8770563 15.9479946 58.41263476 15.5625 51.8125 C15.63614604 46.15096083 18.12246423 42.92878074 22 39 C25.40615357 35.79603819 27.8739061 34.15804827 32.5625 33.5 C37.59569833 34.23210158 41.76412677 35.98789128 45 40 C45.3984375 42.15625 45.3984375 42.15625 45.375 44.5 C45.38660156 45.66015625 45.38660156 45.66015625 45.3984375 46.84375 C44.8958958 49.56338743 44.23970858 50.39601656 42 52 C40.35 52.33 38.7 52.66 37 53 C37 49.37 37 45.74 37 42 C32.52297636 40.93462795 32.52297636 40.93462795 30 41 C27.60949438 46.52804424 27.24211907 52.07228843 28 58 C29.80118478 61.00197464 30.90332732 62.45166366 34 64 C39.16665258 64.21724499 43.724245 63.7503743 47.875 60.5 C54.08471933 54.23155992 55.35506211 47.81592048 55.5 39.25 C55.51861084 38.51676514 55.53722168 37.78353027 55.55639648 37.02807617 C55.4973179 32.00639632 54.38646087 29.62835093 51 26 C51 25.34 51 24.68 51 24 C49.67741528 23.31225595 48.34013497 22.65288627 47 22 C45.96875 21.46375 44.9375 20.9275 43.875 20.375 C38.10826029 17.95469811 31.78600107 18.19281204 25.875 20.0625 C15.59071571 24.60575812 10.88937458 33.43759484 6 43 C5.31164062 44.18335938 5.31164062 44.18335938 4.609375 45.390625 C1.82233091 50.84695076 1.76383392 56.08570099 1.8125 62.0703125 C1.81648804 62.97923752 1.82047607 63.88816254 1.82458496 64.82463074 C1.94861021 77.33737872 2.75960818 89.82439235 3.5 102.3125 C5.28046299 132.56244674 5.28046299 132.56244674 5 146 C19.59432745 140.21656569 19.59432745 140.21656569 33.06640625 132.25 C35 131 35 131 37 131 C37.33 133.64 37.66 136.28 38 139 C19.70437332 149.60741705 -3.27303792 161.00345407 -25 160 C-25 157.36 -25 154.72 -25 152 C-23.85402344 151.86722656 -22.70804688 151.73445312 -21.52734375 151.59765625 C-19.99739032 151.41931812 -18.46744271 151.24093004 -16.9375 151.0625 C-16.18533203 150.97548828 -15.43316406 150.88847656 -14.65820312 150.79882812 C-10.09411781 150.26536361 -5.54606466 149.67013702 -1 149 C-4.52653887 111.10398014 -10.19587326 73.76604892 -18.921875 36.69921875 C-20.06363013 31.82202827 -21.04586382 26.91692113 -22 22 C-23.19238281 22.5053125 -24.38476562 23.010625 -25.61328125 23.53125 C-27.17957077 24.18777854 -28.74598347 24.84401329 -30.3125 25.5 C-31.09818359 25.83386719 -31.88386719 26.16773438 -32.69335938 26.51171875 C-33.45068359 26.82753906 -34.20800781 27.14335938 -34.98828125 27.46875 C-36.03302612 27.90864258 -36.03302612 27.90864258 -37.09887695 28.35742188 C-39 29 -39 29 -42 29 C-42.33 27.35 -42.66 25.7 -43 24 C-41.99582031 23.64808594 -40.99164062 23.29617188 -39.95703125 22.93359375 C-26.2893596 18.04280184 -13.19654689 12.28452413 -2.81640625 1.79296875 C-1 0 -1 0 0 0 Z " fill="#F7F7F7" transform="translate(895,513)"/>
<path d="M0 0 C0 2.31 0 4.62 0 7 C-1.60256108 7.50512244 -3.20711792 8.00391627 -4.8125 8.5 C-5.70582031 8.7784375 -6.59914063 9.056875 -7.51953125 9.34375 C-10 10 -10 10 -13 10 C-12.97607178 11.66905396 -12.97607178 11.66905396 -12.95166016 13.37182617 C-12.83788516 25.05502717 -13.37028673 36.61463062 -14.16830444 48.26739502 C-15.63499529 69.87515321 -16.52900808 91.48072677 -17.1875 113.125 C-17.20884758 113.82485142 -17.23019516 114.52470284 -17.25218964 115.24576187 C-17.51325122 123.83019881 -17.75852833 132.41497192 -18 141 C-8.43 140.67 1.14 140.34 11 140 C11 142.64 11 145.28 11 148 C10.07888428 148.01981934 9.15776855 148.03963867 8.20874023 148.06005859 C4.71389603 148.13925319 1.21939159 148.22596357 -2.27514648 148.31738281 C-3.77312306 148.35511603 -5.2711733 148.39005313 -6.76928711 148.421875 C-19.05737338 148.6858688 -30.87232451 149.94711132 -43 152 C-43 149.03 -43 146.06 -43 143 C-37.06 143 -31.12 143 -25 143 C-25.95239398 104.7281248 -27.1519531 66.53920097 -29.83673096 28.34173584 C-30.09619381 24.62031103 -30.34320609 20.89807434 -30.58984375 17.17578125 C-30.72519531 15.13777344 -30.86054687 13.09976563 -31 11 C-36.28 11 -41.56 11 -47 11 C-47 9.02 -47 7.04 -47 5 C-46.19892822 4.98018066 -45.39785645 4.96036133 -44.57250977 4.93994141 C-40.90220652 4.84400309 -37.23241955 4.73460437 -33.5625 4.625 C-32.30244141 4.5940625 -31.04238281 4.563125 -29.74414062 4.53125 C-21.41776328 4.27037134 -14.11358923 3.2071942 -6.125 0.875 C-3 0 -3 0 0 0 Z " fill="#F7F7F7" transform="translate(1764,521)"/>
<path d="M0 0 C-0.27372083 2.68246412 -0.61661323 5.33147625 -1 8 C-1.16113281 9.18464844 -1.32226562 10.36929688 -1.48828125 11.58984375 C-2.82518784 19.79992655 -4.48965326 25.42587569 -11 31 C-11.86625 31.78375 -12.7325 32.5675 -13.625 33.375 C-17.97461949 36.35105544 -21.6952738 37.75781803 -27 37 C-31.12612346 34.22280152 -33.88267891 31.91621279 -35 27 C-35.81192972 20.39038464 -34.70623568 15.53512976 -31 10 C-23.4811763 0.85548469 -11.26349561 -0.27627442 0 0 Z " fill="#040404" transform="translate(1026,618)"/>
<path d="M0 0 C5.71513163 2.43668403 8.96424687 6.93020638 11.640625 12.421875 C12.30078125 15.20703125 12.30078125 15.20703125 12.640625 17.421875 C8.92890573 16.18463524 7.3852901 14.1665401 4.640625 11.421875 C-0.36594313 8.35705761 -5.95959612 8.76346712 -11.578125 9.8515625 C-17.04017884 11.55320235 -20.13471301 14.79130501 -23.359375 19.421875 C-25.33373712 23.37059924 -24.79767193 28.11804267 -24.359375 32.421875 C-21.90369948 37.42417698 -18.3623443 40.92039035 -13.359375 43.421875 C-6.99142551 43.91880149 -6.99142551 43.91880149 -1.359375 41.421875 C1.35180193 37.89734499 1.06216768 33.67102525 0.640625 29.421875 C-0.10153899 26.55757381 -0.10153899 26.55757381 -1.359375 24.421875 C-3.64643331 23.27834584 -4.95202262 23.31853061 -7.484375 23.359375 C-9.4025 23.3903125 -9.4025 23.3903125 -11.359375 23.421875 C-11.359375 25.071875 -11.359375 26.721875 -11.359375 28.421875 C-7.88789658 29.17144657 -7.88789658 29.17144657 -4.359375 29.421875 C-5.109375 34.171875 -5.109375 34.171875 -7.359375 36.421875 C-9.796875 36.796875 -9.796875 36.796875 -12.359375 36.421875 C-15.28301744 34.00230885 -15.37786733 32.27624791 -15.859375 28.484375 C-15.74670148 24.93184516 -15.36264711 24.42581831 -12.921875 21.484375 C-12.07625 20.80375 -11.230625 20.123125 -10.359375 19.421875 C-10.029375 19.091875 -9.699375 18.761875 -9.359375 18.421875 C-3.49779796 17.82375489 0.87571424 19.06572046 5.640625 22.421875 C9.24791504 26.26135842 9.26672203 29.5691851 9.1171875 34.66015625 C8.33779693 39.17678847 6.19199065 41.65180979 2.640625 44.421875 C-3.04655232 47.87878671 -8.86346785 48.40327104 -15.359375 47.421875 C-21.5341029 45.07109027 -24.98648499 40.94114956 -28.359375 35.421875 C-30.5329295 28.90121149 -30.49191139 20.22698559 -28.5234375 13.61328125 C-22.54805765 2.04350214 -12.74443537 -3.12280867 0 0 Z " fill="#F4F4F4" transform="translate(1752.359375,461.578125)"/>
</svg>
